<svg width="65" height="50" xmlns="http://www.w3.org/2000/svg" fill="none">

 <g>
  <title>Layer 1</title>
  <path id="svg_1" fill="#36393A" d="m21.292,15.556l-7.816,0c3.692,-9.121 12.635,-15.556 23.08,-15.556c13.747,0 24.89,11.143 24.89,24.89c0,13.746 -11.143,24.89 -24.89,24.89c-10.445,0 -19.388,-6.436 -23.08,-15.557l7.816,0c3.145,5.132 8.805,8.556 15.265,8.556c9.88,0 17.889,-8.009 17.889,-17.89c0,-9.879 -8.01,-17.889 -17.89,-17.889c-6.46,0 -12.12,3.424 -15.264,8.556zm-11.958,14l-3.112,-3.11l39.668,0c1.386,0 2.08,1.674 1.1,2.655l-6.222,6.222l-2.2,-2.2l3.567,-3.567l-32.801,0zm23.012,-12.896l2.2,-2.2l6.222,6.223c0.98,0.98 0.286,2.655 -1.1,2.655l-36.558,0l-3.11,-3.112l35.913,0l-3.567,-3.567l0,0.001zm51.763,-1.277c1.699"/>
 </g>
</svg>
