<?xml version="1.0" encoding="UTF-8"?>
<!DOCTYPE svg PUBLIC "-//W3C//DTD SVG 1.1//EN" "http://www.w3.org/Graphics/SVG/1.1/DTD/svg11.dtd">
<svg xmlns="http://www.w3.org/2000/svg" version="1.1" width="152px" height="152px" style="shape-rendering:geometricPrecision; text-rendering:geometricPrecision; image-rendering:optimizeQuality; fill-rule:evenodd; clip-rule:evenodd" xmlns:xlink="http://www.w3.org/1999/xlink">
<g><path style="opacity:0.999" fill="#067feb" d="M 9.5,-0.5 C 53.5,-0.5 97.5,-0.5 141.5,-0.5C 145.833,1.83333 149.167,5.16667 151.5,9.5C 151.5,53.5 151.5,97.5 151.5,141.5C 149.167,145.833 145.833,149.167 141.5,151.5C 97.5,151.5 53.5,151.5 9.5,151.5C 5.16667,149.167 1.83333,145.833 -0.5,141.5C -0.5,97.5 -0.5,53.5 -0.5,9.5C 1.83333,5.16667 5.16667,1.83333 9.5,-0.5 Z"/></g>
<g><path style="opacity:1" fill="#fefefe" d="M 9.5,51.5 C 19.1724,51.3335 28.8391,51.5002 38.5,52C 42.2749,53.4421 45.1083,55.9421 47,59.5C 47.6667,70.1667 47.6667,80.8333 47,91.5C 45.5259,95.6408 42.6926,98.4741 38.5,100C 28.8391,100.5 19.1724,100.666 9.5,100.5C 9.5,90.8333 9.5,81.1667 9.5,71.5C 12.8333,71.5 16.1667,71.5 19.5,71.5C 19.5,77.8333 19.5,84.1667 19.5,90.5C 25.4254,90.8082 31.2588,90.4749 37,89.5C 37.6667,80.5 37.6667,71.5 37,62.5C 27.9172,61.5155 18.7506,61.1822 9.5,61.5C 9.5,58.1667 9.5,54.8333 9.5,51.5 Z"/></g>
<g><path style="opacity:1" fill="#fbfdfe" d="M 68.5,51.5 C 77.1667,51.5 85.8333,51.5 94.5,51.5C 94.5,54.8333 94.5,58.1667 94.5,61.5C 86.4931,61.3336 78.4931,61.5003 70.5,62C 66.5,65 66.5,68 70.5,71C 76.2488,71.1478 81.9155,71.8144 87.5,73C 96.477,80.9271 96.8104,89.2605 88.5,98C 86.913,98.8624 85.2464,99.5291 83.5,100C 74.8397,100.5 66.1731,100.666 57.5,100.5C 57.5,97.1667 57.5,93.8333 57.5,90.5C 65.84,90.6664 74.1733,90.4997 82.5,90C 85.1667,87.3333 85.1667,84.6667 82.5,82C 77.5,81.6667 72.5,81.3333 67.5,81C 58.1528,76.4651 55.3194,69.2984 59,59.5C 61.3616,55.7553 64.5283,53.0886 68.5,51.5 Z"/></g>
<g><path style="opacity:1" fill="#fdfefe" d="M 104.5,51.5 C 107.85,51.335 111.183,51.5017 114.5,52C 117.402,58.2025 120.402,64.3691 123.5,70.5C 126.496,64.5089 129.496,58.5089 132.5,52.5C 135.768,51.513 139.102,51.1796 142.5,51.5C 142.5,67.8333 142.5,84.1667 142.5,100.5C 139.167,100.5 135.833,100.5 132.5,100.5C 132.666,90.8276 132.5,81.1609 132,71.5C 129.64,77.4208 126.807,83.0875 123.5,88.5C 120.193,83.0875 117.36,77.4208 115,71.5C 114.5,81.1609 114.334,90.8276 114.5,100.5C 111.167,100.5 107.833,100.5 104.5,100.5C 104.5,84.1667 104.5,67.8333 104.5,51.5 Z"/></g>
</svg>
