<?xml version="1.0" encoding="UTF-8"?>
<!DOCTYPE svg PUBLIC "-//W3C//DTD SVG 1.1//EN" "http://www.w3.org/Graphics/SVG/1.1/DTD/svg11.dtd">
<svg xmlns="http://www.w3.org/2000/svg" version="1.1" width="563px" height="1137px" style="shape-rendering:geometricPrecision; text-rendering:geometricPrecision; image-rendering:optimizeQuality; fill-rule:evenodd; clip-rule:evenodd" xmlns:xlink="http://www.w3.org/1999/xlink">
<g><path style="opacity:0.983" fill="#c62c47" d="M 314.5,-0.5 C 323.833,-0.5 333.167,-0.5 342.5,-0.5C 370.217,5.2817 393.384,18.9484 412,40.5C 431.181,67.3576 449.181,95.0242 466,123.5C 496.749,174.667 527.749,225.667 559,276.5C 560.296,279.571 561.462,282.571 562.5,285.5C 562.5,286.167 562.5,286.833 562.5,287.5C 560.863,288.218 559.197,288.384 557.5,288C 499.326,228.492 441.826,168.326 385,107.5C 372.833,95.3333 360.667,83.1667 348.5,71C 331.82,60.7985 316.653,62.6318 303,76.5C 293.092,89.8207 293.092,103.154 303,116.5C 352.333,167.833 401.667,219.167 451,270.5C 505.132,326.341 523.465,392.341 506,468.5C 489.043,525.778 454.21,568.278 401.5,596C 388.677,602.245 376.01,608.745 363.5,615.5C 362.5,789.165 362.167,962.832 362.5,1136.5C 361.833,1136.5 361.167,1136.5 360.5,1136.5C 338.173,1114.01 316.007,1091.34 294,1068.5C 293.833,929.832 293.333,791.165 292.5,652.5C 194.936,702.115 97.269,751.449 -0.5,800.5C -0.5,799.5 -0.5,798.5 -0.5,797.5C 43.367,607.545 147.034,460.045 310.5,355C 327.177,344.993 344.177,335.493 361.5,326.5C 362.5,398.164 362.833,469.83 362.5,541.5C 397.996,527.505 423.163,502.839 438,467.5C 455.623,419.867 449.623,375.533 420,334.5C 368.73,279.228 316.73,224.561 264,170.5C 251.308,157.125 241.641,141.792 235,124.5C 222.984,68.6983 242.818,28.865 294.5,5C 301.208,2.82607 307.875,0.992739 314.5,-0.5 Z M 292.5,446.5 C 293.665,488.998 293.831,531.665 293,574.5C 292.365,575.966 291.531,577.3 290.5,578.5C 267.326,591.254 243.992,603.754 220.5,616C 183.967,634.933 147.3,653.267 110.5,671C 154.371,582.621 215.038,507.787 292.5,446.5 Z"/></g>
</svg>
